<svg width="1686" height="221" viewBox="0 0 1686 221" fill="none" xmlns="http://www.w3.org/2000/svg">
<path d="M139.586 0.705078H140.982C142.576 0.796039 144.204 0.949806 145.753 1.3418C154.984 4.11611 163.89 8.04475 172.129 13.0541C175.692 15.2198 178.536 18.5442 180.095 22.4166C182.563 28.5283 181.632 35.8333 177.642 41.0874C176.062 43.1188 174.118 44.9489 172.345 46.8201C170.241 46.7204 168.215 46.5104 166.126 46.9608C162.242 47.7817 158.709 50.164 156.222 53.2241C154.659 55.104 153.611 57.2697 153.109 59.665C152.304 63.4594 152.914 67.5028 154.789 70.8965C157.577 75.9644 163.056 79.4274 168.884 79.4079C172.96 79.527 176.971 77.9915 180.006 75.2843C182.474 73.1164 184.167 70.236 185.041 67.0827C185.959 63.7756 185.433 60.6115 184.708 57.3412C186.756 54.5821 189.905 52.7867 193.15 51.8056C197.027 50.6144 201.26 50.6729 205.095 52.0005C208.817 53.2783 212.122 55.6931 214.391 58.9179C215.404 60.3364 216.088 61.8416 216.833 63.4074C218.876 67.7952 220.478 72.2826 221.974 76.8783C223.491 81.7447 223.34 87.2392 220.998 91.824C217.952 97.9834 211.542 102.347 204.613 102.438C191.217 102.438 177.822 102.46 164.427 102.414C161.467 98.0852 156.627 95.1614 151.354 94.8972C144.504 94.5355 137.766 98.88 135.33 105.308C133.007 111.194 134.412 118.276 138.863 122.785C141.088 125.038 143.937 126.656 147.039 127.32C150.799 128.159 154.822 127.624 158.233 125.837C161.392 124.208 163.619 121.549 165.442 118.56C178.279 118.575 191.118 118.534 203.955 118.575C206.078 118.56 208.182 118.92 210.183 119.634C215.753 121.599 220.251 126.209 222.063 131.836C223.377 135.944 223.204 140.547 221.825 144.618C220.108 149.92 218.166 155.098 215.651 160.079C213.395 164.478 209.284 167.748 204.591 169.21C201.654 170.141 198.549 170.289 195.514 169.821C191.473 169.154 187.877 167.12 184.937 164.307C185.829 161.125 185.784 157.723 184.753 154.578C183.678 151.23 181.515 148.252 178.634 146.232C175.194 143.756 170.797 142.743 166.617 143.388C163.604 143.819 160.827 145.177 158.506 147.126C155.61 149.539 153.666 152.989 152.999 156.69C152.046 161.909 153.804 167.48 157.562 171.213C159.787 173.403 162.658 174.936 165.693 175.64C168.373 176.182 170.929 175.859 173.616 175.603C174.78 176.801 175.958 177.96 177.021 179.255C179.357 182.029 180.857 185.54 181.292 189.137C182.099 196.035 179.116 203.268 173.298 207.178C169.34 209.846 165.141 211.964 160.824 213.976C156.06 216.297 151.152 218.034 146.104 219.626C143.498 220.505 140.593 220.601 137.876 220.328C130.875 219.42 124.639 214.021 122.636 207.266C122.086 205.499 122.015 203.745 121.982 201.908C121.989 189.709 122.021 177.498 121.98 165.301C121.788 161.619 121.725 157.942 121.766 154.256C121.779 110.581 121.779 66.9029 121.775 23.2287C121.764 20.7208 121.701 18.3363 122.14 15.8479C122.621 13.1082 123.727 10.5267 125.372 8.28515C127.567 5.27045 130.657 2.99426 134.135 1.67749C135.9 1.04077 137.72 0.780879 139.586 0.705078Z" fill="#38BDF8"/>
<path d="M82.2963 1.03427C88.4333 0.930315 94.4296 4.09229 97.8997 9.14278C100.168 12.4282 101.326 16.424 101.231 20.4133C101.21 80.8373 101.236 141.259 101.218 201.685C101.229 204.839 100.623 207.944 99.1444 210.747C96.116 216.663 89.9335 220.787 83.2423 220.96L82.0495 220.96C80.4259 220.88 78.8154 220.638 77.2546 220.185C69.0654 217.748 61.1684 214.357 53.7433 210.127C51.2907 208.746 48.9809 207.431 47.0218 205.358C44.4263 202.74 42.6772 199.351 41.9628 195.74C41.032 191.147 41.8416 186.257 44.2228 182.222C45.9221 179.395 48.2644 177.243 50.5179 174.886C53.0853 174.934 55.4925 175.101 57.9949 174.349C61.0732 173.383 63.8938 171.588 66.078 169.212C68.4441 166.654 69.9897 163.391 70.2084 159.891C70.7798 153.946 67.7514 147.999 62.7811 144.759C59.8696 142.864 56.3302 141.904 52.858 142.151C49.3208 142.366 45.8745 143.78 43.1989 146.104C39.7223 149.015 37.7134 153.454 37.3887 157.937C37.3476 160.116 37.9862 162.453 38.2914 164.619C35.0573 167.677 31.1391 169.901 26.6689 170.427C23.8396 170.711 20.928 170.533 18.2178 169.622C13.3211 168.01 9.12804 164.376 6.92867 159.702C4.59941 154.782 2.65547 149.643 1.01892 144.451C-0.000667852 141.307 -0.214977 137.902 0.393315 134.654C1.67051 127.572 7.38759 121.475 14.3386 119.673C16.0292 119.221 17.7762 119.11 19.5188 119.093C32.5246 119.13 45.5303 119.075 58.5361 119.13C60.0146 120.962 61.4455 122.668 63.4522 123.955C68.5761 127.398 75.6419 127.507 80.8935 124.275C82.385 123.372 83.5388 122.209 84.79 121.02C85.1451 120.672 85.5888 120.355 85.8659 119.94C87.8878 116.752 88.9745 112.994 88.7494 109.208C88.5805 106.226 87.5587 103.324 85.8832 100.857C83.4609 97.3488 79.5579 94.8647 75.3778 94.0785C72.8645 93.8382 70.256 93.7862 67.8077 94.4965C63.4262 95.8003 59.8176 98.9493 57.6832 102.969C44.7445 103.025 31.808 102.984 18.8694 103.001C12.4055 102.943 6.21647 99.3261 2.86978 93.8143C1.0882 90.9902 0.14437 87.7091 0.0361328 84.376V83.1568C0.116228 81.2964 0.423621 79.4707 0.990783 77.6969C2.28313 73.3936 3.84391 69.1575 5.70342 65.0642C6.31605 63.7886 6.77713 62.4653 7.50449 61.2417C10.0762 56.6893 14.4382 53.2328 19.5599 52.059C22.3091 51.3616 25.1926 51.2598 27.9721 51.8467C31.7799 52.6286 35.198 54.5474 38.0511 57.1571C37.6572 59.2709 37.248 61.3478 37.4602 63.5114C37.8845 66.8986 39.2266 70.1429 41.4887 72.7157C43.8158 75.4013 46.9829 77.3201 50.4746 78.0305C53.923 78.8751 57.5858 78.26 60.8091 76.8805C62.0473 76.1376 63.3894 75.4359 64.4675 74.483C67.6561 71.7975 69.7278 67.871 70.1802 63.728C70.5179 60.8107 70.0179 57.8328 68.8034 55.1625C66.4266 49.9171 61.1922 46.153 55.4557 45.6138C53.3645 45.3669 51.3513 45.8758 49.2558 45.709C48.1626 44.6955 47.1192 43.6343 46.1668 42.4864C43.6838 39.5584 42.0624 35.9567 41.7572 32.1104C41.5602 29.4249 41.7031 26.5553 42.5668 23.9846C43.8245 20.1166 46.3681 16.7727 49.6498 14.3925C50.6369 13.6735 51.6674 13.0996 52.7194 12.4823C60.4475 8.01227 68.6368 4.37167 77.2156 1.87891C78.8652 1.36346 80.5645 1.05593 82.2963 1.03427Z" fill="#38BDF8"/>
<path d="M417.254 202.833C415.152 202.833 413.487 202.57 412.26 202.044C411.034 201.343 409.982 200.117 409.106 198.364L321.053 53.0111V197.313C321.053 200.993 319.126 202.833 315.271 202.833H287.409C283.554 202.833 281.626 200.993 281.626 197.313V24.361C281.626 20.6812 283.554 18.8413 287.409 18.8413H340.504C342.606 18.8413 344.271 19.1917 345.498 19.8926C346.724 20.5936 347.776 21.7325 348.652 23.3096L436.705 168.926V24.361C436.705 20.6812 438.72 18.8413 442.75 18.8413H470.612C474.467 18.8413 476.395 20.6812 476.395 24.361V197.313C476.395 200.993 474.467 202.833 470.612 202.833H417.254ZM497.885 133.528C497.885 123.582 499.881 114.264 503.875 105.571C507.947 96.8786 513.703 89.2825 521.143 82.7827C528.661 76.2829 537.705 71.1536 548.277 67.3947C558.928 63.6358 570.87 61.7563 584.104 61.7563C597.339 61.7563 609.242 63.6358 619.814 67.3947C630.464 71.1536 639.509 76.2829 646.949 82.7827C654.466 89.2825 660.222 96.8786 664.216 105.571C668.288 114.264 670.324 123.582 670.324 133.528C670.324 143.473 668.288 152.792 664.216 161.485C660.222 170.177 654.466 177.773 646.949 184.273C639.509 190.773 630.464 195.902 619.814 199.661C609.242 203.42 597.339 205.3 584.104 205.3C570.87 205.3 558.928 203.42 548.277 199.661C537.705 195.902 528.661 190.773 521.143 184.273C513.703 177.773 507.947 170.177 503.875 161.485C499.881 152.792 497.885 143.473 497.885 133.528ZM534.416 133.528C534.416 139.088 535.513 144.374 537.705 149.386C539.976 154.319 543.226 158.705 547.455 162.542C551.762 166.301 556.97 169.316 563.078 171.587C569.265 173.78 576.273 174.876 584.104 174.876C591.935 174.876 598.905 173.78 605.013 171.587C611.2 169.316 616.408 166.301 620.636 162.542C624.943 158.705 628.193 154.319 630.386 149.386C632.657 144.374 633.792 139.088 633.792 133.528C633.792 127.968 632.657 122.682 630.386 117.67C628.193 112.658 624.943 108.273 620.636 104.514C616.408 100.677 611.2 97.6617 605.013 95.469C598.905 93.198 591.935 92.0625 584.104 92.0625C576.273 92.0625 569.265 93.198 563.078 95.469C556.97 97.6617 551.762 100.677 547.455 104.514C543.226 108.273 539.976 112.658 537.705 117.67C535.513 122.682 534.416 127.968 534.416 133.528ZM690.547 19.2337H788.631C800.613 19.2337 811.028 20.5258 819.877 23.1101C828.805 25.616 836.205 29.1008 842.078 33.5645C847.951 38.0282 852.298 43.3533 855.117 49.5399C858.014 55.6481 859.463 62.2653 859.463 69.3916C859.463 81.0599 855.783 91.2794 848.421 100.05C856.879 105.062 863.183 111.562 867.333 119.549C871.484 127.537 873.559 136.621 873.559 146.802C873.559 155.337 872.11 163.051 869.213 169.942C866.394 176.834 862.047 182.746 856.174 187.68C850.379 192.535 843.018 196.294 834.09 198.956C825.241 201.541 814.787 202.833 802.727 202.833H690.547V19.2337ZM802.962 89.7132C806.173 89.7132 809.305 89.8306 812.359 90.0656C817.606 85.0537 820.23 79.337 820.23 72.9156C820.23 66.2592 817.606 61.1298 812.359 57.5275C807.191 53.8469 799.595 52.0066 789.571 52.0066H727.784V89.7132H802.962ZM803.667 170.412C813.691 170.412 821.287 168.259 826.455 163.952C831.702 159.644 834.325 153.575 834.325 145.744C834.325 137.913 831.702 131.805 826.455 127.42C821.287 123.034 813.691 120.842 803.667 120.842H727.784V170.412H803.667ZM887.791 64.2231H922.561V84.1923C930.235 78.4756 938.341 73.542 946.876 69.3916C955.412 65.2411 963.909 62.0696 972.367 59.8769L982.586 91.7101C969.195 93.0414 957.409 96.0563 947.229 100.755C937.127 105.375 928.904 111.914 922.561 120.372V202.833H887.791V64.2231ZM982.722 159.135C982.722 152.479 984.171 146.41 987.069 140.928C989.966 135.447 994.312 130.748 1000.11 126.832C1005.9 122.839 1013.11 119.784 1021.72 117.67C1030.41 115.477 1040.52 114.381 1052.03 114.381C1060.56 114.381 1069.53 115.007 1078.93 116.26C1088.4 117.513 1098.15 119.432 1108.18 122.016C1107.78 117.631 1106.45 113.598 1104.18 109.917C1101.91 106.158 1098.74 102.948 1094.67 100.285C1090.67 97.5442 1085.82 95.4298 1080.1 93.9419C1074.46 92.454 1068.04 91.7101 1060.84 91.7101C1056.92 91.7101 1052.61 91.945 1047.92 92.4149C1043.22 92.8848 1038.36 93.5895 1033.35 94.5293C1028.34 95.469 1023.37 96.6437 1018.43 98.0532C1013.58 99.4628 1009.03 101.147 1004.81 103.104L994.234 74.5601C999.481 72.6806 1005.08 70.9578 1011.03 69.3916C1017.06 67.8254 1023.21 66.4941 1029.47 65.3977C1035.74 64.2231 1042 63.3225 1048.27 62.696C1054.53 62.0696 1060.6 61.7563 1066.48 61.7563C1092.4 61.7563 1111.66 68.3736 1124.27 81.608C1136.88 94.8425 1143.18 115.125 1143.18 142.455V202.833H1108.41V189.794C1104.81 191.908 1100.85 193.905 1096.55 195.785C1092.32 197.664 1087.7 199.309 1082.69 200.718C1077.67 202.128 1072.27 203.224 1066.48 204.007C1060.76 204.869 1054.69 205.3 1048.27 205.3C1037.46 205.3 1027.95 204.125 1019.72 201.776C1011.58 199.426 1004.77 196.176 999.285 192.026C993.803 187.875 989.653 183.02 986.834 177.46C984.093 171.822 982.722 165.714 982.722 159.135ZM1019.37 157.961C1019.37 160.232 1019.96 162.425 1021.13 164.539C1022.31 166.575 1024.19 168.415 1026.77 170.06C1029.36 171.626 1032.65 172.918 1036.64 173.936C1040.71 174.876 1045.61 175.346 1051.32 175.346C1057.43 175.346 1063.34 174.798 1069.06 173.701C1074.78 172.605 1080.1 171.156 1085.04 169.355C1089.97 167.554 1094.43 165.479 1098.43 163.129C1102.42 160.78 1105.75 158.352 1108.41 155.846V149.738C1103.09 148.25 1097.8 146.997 1092.55 145.979C1087.38 144.961 1082.41 144.178 1077.63 143.63C1072.94 143.004 1068.47 142.573 1064.24 142.338C1060.09 142.103 1056.45 141.985 1053.32 141.985C1046.82 141.985 1041.42 142.416 1037.11 143.278C1032.8 144.139 1029.32 145.314 1026.65 146.802C1023.99 148.211 1022.11 149.895 1021.02 151.853C1019.92 153.81 1019.37 155.846 1019.37 157.961ZM1183.49 45.3111C1180.05 45.3111 1176.92 44.8412 1174.1 43.9015C1171.36 42.8835 1169.01 41.5522 1167.05 39.9077C1165.09 38.1848 1163.56 36.2271 1162.47 34.0344C1161.45 31.7634 1160.94 29.3749 1160.94 26.869C1160.94 24.2847 1161.45 21.8962 1162.47 19.7035C1163.56 17.4325 1165.09 15.4748 1167.05 13.8303C1169.01 12.1857 1171.36 10.8936 1174.1 9.95388C1176.92 8.93584 1180.05 8.42683 1183.49 8.42683C1187.02 8.42683 1190.15 8.93584 1192.89 9.95388C1195.71 10.8936 1198.1 12.1857 1200.06 13.8303C1202.02 15.4748 1203.5 17.4325 1204.52 19.7035C1205.62 21.8962 1206.17 24.2847 1206.17 26.869C1206.17 29.3749 1205.62 31.7634 1204.52 34.0344C1203.5 36.2271 1202.02 38.1848 1200.06 39.9077C1198.1 41.5522 1195.71 42.8835 1192.89 43.9015C1190.15 44.8412 1187.02 45.3111 1183.49 45.3111ZM1166.11 64.2231H1200.88V202.833H1166.11V64.2231ZM1221.46 64.2231H1256.23V75.9697C1265.47 70.7229 1274.28 67.0423 1282.66 64.9279C1291.12 62.8135 1299.38 61.7563 1307.44 61.7563C1318.02 61.7563 1327.81 63.3225 1336.81 66.4549C1345.82 69.5091 1353.61 74.0902 1360.19 80.1984C1366.77 86.3067 1371.89 93.9419 1375.58 103.104C1379.33 112.188 1381.21 122.721 1381.21 134.703V202.833H1346.56V140.341C1346.56 132.745 1345.46 125.971 1343.27 120.019C1341.16 113.989 1338.06 108.938 1333.99 104.866C1330 100.716 1325.1 97.5834 1319.31 95.469C1313.59 93.2763 1307.17 92.18 1300.04 92.18C1296.29 92.18 1292.41 92.5715 1288.42 93.3546C1284.5 94.1377 1280.62 95.2732 1276.79 96.7611C1273.03 98.1707 1269.39 99.9719 1265.86 102.165C1262.34 104.279 1259.13 106.707 1256.23 109.447V202.833H1221.46V64.2231ZM1398.15 133.058C1398.15 123.661 1400.07 114.694 1403.9 106.158C1407.74 97.5442 1413.26 89.9481 1420.47 83.37C1427.67 76.7919 1436.48 71.5451 1446.9 67.6296C1457.39 63.7141 1469.29 61.7563 1482.61 61.7563C1495.84 61.7563 1507.74 63.7532 1518.31 67.7471C1528.97 71.6626 1537.97 77.066 1545.33 83.9573C1552.77 90.8487 1558.45 98.9538 1562.36 108.273C1566.36 117.592 1568.36 127.576 1568.36 138.227C1568.36 139.558 1568.32 141.007 1568.24 142.573C1568.24 144.061 1568.16 145.431 1568 146.684H1436.91C1438.4 150.835 1440.79 154.633 1444.08 158.078C1447.44 161.524 1451.63 164.5 1456.65 167.006C1461.66 169.512 1467.45 171.469 1474.03 172.879C1480.61 174.21 1487.89 174.876 1495.88 174.876C1503.87 174.876 1511.81 174.054 1519.72 172.409C1527.63 170.686 1535.19 168.533 1542.4 165.948L1554.14 192.496C1549.6 194.61 1544.98 196.49 1540.28 198.134C1535.66 199.7 1530.81 201.032 1525.72 202.128C1520.7 203.146 1515.42 203.929 1509.86 204.477C1504.38 205.025 1498.58 205.3 1492.47 205.3C1476.89 205.3 1463.22 203.42 1451.48 199.661C1439.73 195.902 1429.9 190.773 1421.99 184.273C1414.08 177.773 1408.13 170.138 1404.14 161.367C1400.14 152.597 1398.15 143.16 1398.15 133.058ZM1531.47 119.549C1530.22 115.712 1528.26 112.149 1525.6 108.86C1523.01 105.493 1519.76 102.595 1515.85 100.168C1511.93 97.6617 1507.39 95.7039 1502.22 94.2943C1497.05 92.8848 1491.38 92.18 1485.19 92.18C1478.61 92.18 1472.62 92.9239 1467.22 94.4118C1461.81 95.8997 1457.08 97.8966 1453 100.403C1448.93 102.909 1445.53 105.806 1442.78 109.095C1440.12 112.384 1438.16 115.869 1436.91 119.549H1531.47ZM1586.58 64.2231H1621.35V84.1923C1629.03 78.4756 1637.13 73.542 1645.67 69.3916C1654.2 65.2411 1662.7 62.0696 1671.16 59.8769L1681.38 91.7101C1667.99 93.0414 1656.2 96.0563 1646.02 100.755C1635.92 105.375 1627.69 111.914 1621.35 120.372V202.833H1586.58V64.2231Z" fill="white"/>
</svg>
