<svg width="1686" height="222" viewBox="0 0 1686 222" fill="none" xmlns="http://www.w3.org/2000/svg">
<path d="M139.586 0.960205H140.982C142.576 1.05117 144.204 1.20493 145.753 1.59693C154.984 4.37124 163.89 8.29988 172.129 13.3092C175.692 15.475 178.536 18.7994 180.095 22.6717C182.563 28.7834 181.632 36.0884 177.642 41.3425C176.062 43.3739 174.118 45.204 172.345 47.0752C170.241 46.9756 168.215 46.7655 166.126 47.216C162.242 48.0368 158.709 50.4191 156.222 53.4793C154.659 55.3591 153.611 57.5249 153.109 59.9202C152.304 63.7145 152.914 67.758 154.789 71.1517C157.577 76.2195 163.056 79.6825 168.884 79.663C172.96 79.7821 176.971 78.2466 180.006 75.5394C182.474 73.3715 184.167 70.4911 185.041 67.3378C185.959 64.0307 185.433 60.8666 184.708 57.5963C186.756 54.8372 189.905 53.0418 193.15 52.0607C197.027 50.8696 201.26 50.928 205.095 52.2556C208.817 53.5334 212.122 55.9482 214.391 59.173C215.404 60.5915 216.088 62.0967 216.833 63.6626C218.876 68.0503 220.478 72.5377 221.974 77.1334C223.491 81.9998 223.34 87.4943 220.998 92.0792C217.952 98.2385 211.542 102.602 204.613 102.693C191.217 102.693 177.822 102.715 164.427 102.67C161.467 98.3403 156.627 95.4166 151.354 95.1523C144.504 94.7907 137.766 99.1351 135.33 105.563C133.007 111.449 134.412 118.531 138.863 123.04C141.088 125.293 143.937 126.911 147.039 127.576C150.799 128.414 154.822 127.879 158.233 126.092C161.392 124.463 163.619 121.804 165.442 118.815C178.279 118.83 191.118 118.789 203.955 118.83C206.078 118.815 208.182 119.175 210.183 119.889C215.753 121.854 220.251 126.465 222.063 132.091C223.377 136.199 223.204 140.802 221.825 144.873C220.108 150.175 218.166 155.353 215.651 160.334C213.395 164.733 209.284 168.003 204.591 169.465C201.654 170.396 198.549 170.544 195.514 170.076C191.473 169.409 187.877 167.375 184.937 164.562C185.829 161.38 185.784 157.978 184.753 154.833C183.678 151.485 181.515 148.507 178.634 146.487C175.194 144.011 170.797 142.998 166.617 143.643C163.604 144.074 160.827 145.432 158.506 147.381C155.61 149.794 153.666 153.244 152.999 156.945C152.046 162.164 153.804 167.735 157.562 171.468C159.787 173.658 162.658 175.191 165.693 175.895C168.373 176.437 170.929 176.114 173.616 175.858C174.78 177.056 175.958 178.215 177.021 179.51C179.357 182.284 180.857 185.795 181.292 189.392C182.099 196.29 179.116 203.524 173.298 207.433C169.34 210.101 165.141 212.219 160.824 214.231C156.06 216.553 151.152 218.29 146.104 219.881C143.498 220.761 140.593 220.856 137.876 220.583C130.875 219.676 124.639 214.276 122.636 207.521C122.086 205.754 122.015 204 121.982 202.163C121.989 189.964 122.021 177.753 121.98 165.556C121.788 161.874 121.725 158.197 121.766 154.511C121.779 110.837 121.779 67.158 121.775 23.4838C121.764 20.9759 121.701 18.5915 122.14 16.103C122.621 13.3634 123.727 10.7818 125.372 8.54028C127.567 5.52557 130.657 3.24939 134.135 1.93262C135.9 1.29589 137.72 1.03601 139.586 0.960205Z" fill="#38BDF8"/>
<path d="M82.2963 1.2894C88.4333 1.18544 94.4296 4.34741 97.8997 9.39791C100.168 12.6833 101.326 16.6791 101.231 20.6684C101.21 81.0924 101.236 141.514 101.218 201.94C101.229 205.094 100.623 208.199 99.1444 211.002C96.116 216.919 89.9335 221.042 83.2423 221.215L82.0495 221.215C80.4259 221.135 78.8154 220.893 77.2546 220.44C69.0654 218.004 61.1684 214.612 53.7433 210.382C51.2907 209.001 48.9809 207.686 47.0218 205.613C44.4263 202.995 42.6772 199.606 41.9628 195.995C41.032 191.402 41.8416 186.512 44.2228 182.477C45.9221 179.651 48.2644 177.498 50.5179 175.142C53.0853 175.189 55.4925 175.356 57.9949 174.604C61.0732 173.639 63.8938 171.843 66.078 169.467C68.4441 166.91 69.9897 163.646 70.2084 160.146C70.7798 154.201 67.7514 148.254 62.7811 145.014C59.8696 143.119 56.3302 142.16 52.858 142.406C49.3208 142.621 45.8745 144.035 43.1989 146.359C39.7223 149.27 37.7134 153.709 37.3887 158.193C37.3476 160.371 37.9862 162.708 38.2914 164.874C35.0573 167.932 31.1391 170.156 26.6689 170.682C23.8396 170.966 20.928 170.788 18.2178 169.877C13.3211 168.265 9.12804 164.631 6.92867 159.958C4.59941 155.037 2.65547 149.898 1.01892 144.706C-0.000667852 141.562 -0.214977 138.157 0.393315 134.909C1.67051 127.827 7.38759 121.73 14.3386 119.928C16.0292 119.476 17.7762 119.365 19.5188 119.348C32.5246 119.385 45.5303 119.331 58.5361 119.385C60.0146 121.217 61.4455 122.924 63.4522 124.21C68.5761 127.653 75.6419 127.762 80.8935 124.531C82.385 123.627 83.5388 122.464 84.79 121.275C85.1451 120.927 85.5888 120.611 85.8659 120.195C87.8878 117.007 88.9745 113.249 88.7494 109.463C88.5805 106.481 87.5587 103.579 85.8832 101.112C83.4609 97.6039 79.5579 95.1198 75.3778 94.3337C72.8645 94.0933 70.256 94.0413 67.8077 94.7517C63.4262 96.0554 59.8176 99.2044 57.6832 103.224C44.7445 103.28 31.808 103.239 18.8694 103.256C12.4055 103.198 6.21647 99.5812 2.86978 94.0694C1.0882 91.2453 0.14437 87.9642 0.0361328 84.6312V83.4119C0.116228 81.5515 0.423621 79.7258 0.990783 77.9521C2.28313 73.6488 3.84391 69.4126 5.70342 65.3193C6.31605 64.0437 6.77713 62.7205 7.50449 61.4968C10.0762 56.9444 14.4382 53.4879 19.5599 52.3141C22.3091 51.6167 25.1926 51.5149 27.9721 52.1019C31.7799 52.8837 35.198 54.8025 38.0511 57.4122C37.6572 59.526 37.248 61.6029 37.4602 63.7665C37.8845 67.1537 39.2266 70.398 41.4887 72.9709C43.8158 75.6564 46.9829 77.5752 50.4746 78.2856C53.923 79.1302 57.5858 78.5152 60.8091 77.1356C62.0473 76.3927 63.3894 75.691 64.4675 74.7381C67.6561 72.0526 69.7278 68.1261 70.1802 63.9831C70.5179 61.0658 70.0179 58.0879 68.8034 55.4176C66.4266 50.1722 61.1922 46.4081 55.4557 45.8689C53.3645 45.622 51.3513 46.1309 49.2558 45.9642C48.1626 44.9506 47.1192 43.8894 46.1668 42.7416C43.6838 39.8135 42.0624 36.2119 41.7572 32.3655C41.5602 29.68 41.7031 26.8104 42.5668 24.2397C43.8245 20.3717 46.3681 17.0278 49.6498 14.6476C50.6369 13.9286 51.6674 13.3547 52.7194 12.7375C60.4475 8.26739 68.6368 4.62679 77.2156 2.13403C78.8652 1.61859 80.5645 1.31105 82.2963 1.2894Z" fill="#38BDF8"/>
<path d="M417.254 203.088C415.152 203.088 413.487 202.825 412.26 202.299C411.034 201.598 409.982 200.372 409.106 198.62L321.053 53.2662V197.568C321.053 201.248 319.126 203.088 315.271 203.088H287.409C283.554 203.088 281.626 201.248 281.626 197.568V24.6161C281.626 20.9363 283.554 19.0964 287.409 19.0964H340.504C342.606 19.0964 344.271 19.4468 345.498 20.1478C346.724 20.8487 347.776 21.9877 348.652 23.5647L436.705 169.181V24.6161C436.705 20.9363 438.72 19.0964 442.75 19.0964H470.612C474.467 19.0964 476.395 20.9363 476.395 24.6161V197.568C476.395 201.248 474.467 203.088 470.612 203.088H417.254ZM497.885 133.783C497.885 123.838 499.881 114.519 503.875 105.826C507.947 97.1337 513.703 89.5376 521.143 83.0378C528.661 76.538 537.705 71.4087 548.277 67.6498C558.928 63.8909 570.87 62.0114 584.104 62.0114C597.339 62.0114 609.242 63.8909 619.814 67.6498C630.464 71.4087 639.509 76.538 646.949 83.0378C654.466 89.5376 660.222 97.1337 664.216 105.826C668.288 114.519 670.324 123.838 670.324 133.783C670.324 143.728 668.288 153.047 664.216 161.74C660.222 170.432 654.466 178.029 646.949 184.528C639.509 191.028 630.464 196.157 619.814 199.916C609.242 203.675 597.339 205.555 584.104 205.555C570.87 205.555 558.928 203.675 548.277 199.916C537.705 196.157 528.661 191.028 521.143 184.528C513.703 178.029 507.947 170.432 503.875 161.74C499.881 153.047 497.885 143.728 497.885 133.783ZM534.416 133.783C534.416 139.343 535.513 144.629 537.705 149.641C539.976 154.575 543.226 158.96 547.455 162.797C551.762 166.556 556.97 169.571 563.078 171.842C569.265 174.035 576.273 175.131 584.104 175.131C591.935 175.131 598.905 174.035 605.013 171.842C611.2 169.571 616.408 166.556 620.636 162.797C624.943 158.96 628.193 154.575 630.386 149.641C632.657 144.629 633.792 139.343 633.792 133.783C633.792 128.223 632.657 122.937 630.386 117.925C628.193 112.913 624.943 108.528 620.636 104.769C616.408 100.932 611.2 97.9168 605.013 95.7241C598.905 93.4531 591.935 92.3176 584.104 92.3176C576.273 92.3176 569.265 93.4531 563.078 95.7241C556.97 97.9168 551.762 100.932 547.455 104.769C543.226 108.528 539.976 112.913 537.705 117.925C535.513 122.937 534.416 128.223 534.416 133.783ZM690.547 19.4888H788.631C800.613 19.4888 811.028 20.7809 819.877 23.3652C828.805 25.8711 836.205 29.3559 842.078 33.8196C847.951 38.2833 852.298 43.6085 855.117 49.795C858.014 55.9032 859.463 62.5205 859.463 69.6467C859.463 81.315 855.783 91.5345 848.421 100.305C856.879 105.317 863.183 111.817 867.333 119.805C871.484 127.792 873.559 136.876 873.559 147.057C873.559 155.593 872.11 163.306 869.213 170.197C866.394 177.089 862.047 183.001 856.174 187.935C850.379 192.79 843.018 196.549 834.09 199.212C825.241 201.796 814.787 203.088 802.727 203.088H690.547V19.4888ZM802.962 89.9683C806.173 89.9683 809.305 90.0858 812.359 90.3207C817.606 85.3088 820.23 79.5922 820.23 73.1707C820.23 66.5143 817.606 61.385 812.359 57.7827C807.191 54.1021 799.595 52.2618 789.571 52.2618H727.784V89.9683H802.962ZM803.667 170.667C813.691 170.667 821.287 168.514 826.455 164.207C831.702 159.9 834.325 153.831 834.325 146C834.325 138.168 831.702 132.06 826.455 127.675C821.287 123.289 813.691 121.097 803.667 121.097H727.784V170.667H803.667ZM887.791 64.4782H922.561V84.4474C930.235 78.7307 938.341 73.7972 946.876 69.6467C955.412 65.4963 963.909 62.3247 972.367 60.132L982.586 91.9652C969.195 93.2965 957.409 96.3115 947.229 101.01C937.127 105.63 928.904 112.169 922.561 120.627V203.088H887.791V64.4782ZM982.722 159.391C982.722 152.734 984.171 146.665 987.069 141.183C989.966 135.702 994.312 131.003 1000.11 127.088C1005.9 123.094 1013.11 120.04 1021.72 117.925C1030.41 115.732 1040.52 114.636 1052.03 114.636C1060.56 114.636 1069.53 115.263 1078.93 116.516C1088.4 117.769 1098.15 119.687 1108.18 122.271C1107.78 117.886 1106.45 113.853 1104.18 110.172C1101.91 106.414 1098.74 103.203 1094.67 100.54C1090.67 97.7994 1085.82 95.685 1080.1 94.1971C1074.46 92.7092 1068.04 91.9652 1060.84 91.9652C1056.92 91.9652 1052.61 92.2002 1047.92 92.67C1043.22 93.1399 1038.36 93.8447 1033.35 94.7844C1028.34 95.7241 1023.37 96.8988 1018.43 98.3084C1013.58 99.718 1009.03 101.402 1004.81 103.359L994.234 74.8152C999.481 72.9358 1005.08 71.2129 1011.03 69.6467C1017.06 68.0805 1023.21 66.7492 1029.47 65.6529C1035.74 64.4782 1042 63.5776 1048.27 62.9512C1054.53 62.3247 1060.6 62.0114 1066.48 62.0114C1092.4 62.0114 1111.66 68.6287 1124.27 81.8632C1136.88 95.0976 1143.18 115.38 1143.18 142.71V203.088H1108.41V190.049C1104.81 192.164 1100.85 194.16 1096.55 196.04C1092.32 197.919 1087.7 199.564 1082.69 200.974C1077.67 202.383 1072.27 203.479 1066.48 204.263C1060.76 205.124 1054.69 205.555 1048.27 205.555C1037.46 205.555 1027.95 204.38 1019.72 202.031C1011.58 199.681 1004.77 196.431 999.285 192.281C993.803 188.131 989.653 183.275 986.834 177.715C984.093 172.077 982.722 165.969 982.722 159.391ZM1019.37 158.216C1019.37 160.487 1019.96 162.68 1021.13 164.794C1022.31 166.83 1024.19 168.67 1026.77 170.315C1029.36 171.881 1032.65 173.173 1036.64 174.191C1040.71 175.131 1045.61 175.601 1051.32 175.601C1057.43 175.601 1063.34 175.053 1069.06 173.956C1074.78 172.86 1080.1 171.411 1085.04 169.61C1089.97 167.809 1094.43 165.734 1098.43 163.384C1102.42 161.035 1105.75 158.607 1108.41 156.102V149.993C1103.09 148.505 1097.8 147.252 1092.55 146.234C1087.38 145.216 1082.41 144.433 1077.63 143.885C1072.94 143.259 1068.47 142.828 1064.24 142.593C1060.09 142.358 1056.45 142.241 1053.32 142.241C1046.82 142.241 1041.42 142.671 1037.11 143.533C1032.8 144.394 1029.32 145.569 1026.65 147.057C1023.99 148.466 1022.11 150.15 1021.02 152.108C1019.92 154.065 1019.37 156.102 1019.37 158.216ZM1183.49 45.5662C1180.05 45.5662 1176.92 45.0964 1174.1 44.1566C1171.36 43.1386 1169.01 41.8073 1167.05 40.1628C1165.09 38.44 1163.56 36.4822 1162.47 34.2895C1161.45 32.0185 1160.94 29.63 1160.94 27.1241C1160.94 24.5398 1161.45 22.1514 1162.47 19.9587C1163.56 17.6877 1165.09 15.7299 1167.05 14.0854C1169.01 12.4409 1171.36 11.1487 1174.1 10.209C1176.92 9.19097 1180.05 8.68195 1183.49 8.68195C1187.02 8.68195 1190.15 9.19097 1192.89 10.209C1195.71 11.1487 1198.1 12.4409 1200.06 14.0854C1202.02 15.7299 1203.5 17.6877 1204.52 19.9587C1205.62 22.1514 1206.17 24.5398 1206.17 27.1241C1206.17 29.63 1205.62 32.0185 1204.52 34.2895C1203.5 36.4822 1202.02 38.44 1200.06 40.1628C1198.1 41.8073 1195.71 43.1386 1192.89 44.1566C1190.15 45.0964 1187.02 45.5662 1183.49 45.5662ZM1166.11 64.4782H1200.88V203.088H1166.11V64.4782ZM1221.46 64.4782H1256.23V76.2248C1265.47 70.978 1274.28 67.2974 1282.66 65.183C1291.12 63.0686 1299.38 62.0114 1307.44 62.0114C1318.02 62.0114 1327.81 63.5776 1336.81 66.7101C1345.82 69.7642 1353.61 74.3453 1360.19 80.4536C1366.77 86.5618 1371.89 94.1971 1375.58 103.359C1379.33 112.443 1381.21 122.976 1381.21 134.958V203.088H1346.56V140.596C1346.56 133 1345.46 126.226 1343.27 120.274C1341.16 114.245 1338.06 109.194 1333.99 105.121C1330 100.971 1325.1 97.8385 1319.31 95.7241C1313.59 93.5314 1307.17 92.4351 1300.04 92.4351C1296.29 92.4351 1292.41 92.8266 1288.42 93.6097C1284.5 94.3928 1280.62 95.5284 1276.79 97.0163C1273.03 98.4258 1269.39 100.227 1265.86 102.42C1262.34 104.534 1259.13 106.962 1256.23 109.703V203.088H1221.46V64.4782ZM1398.15 133.313C1398.15 123.916 1400.07 114.949 1403.9 106.414C1407.74 97.7994 1413.26 90.2032 1420.47 83.6251C1427.67 77.0471 1436.48 71.8003 1446.9 67.8847C1457.39 63.9692 1469.29 62.0114 1482.61 62.0114C1495.84 62.0114 1507.74 64.0084 1518.31 68.0022C1528.97 71.9177 1537.97 77.3211 1545.33 84.2125C1552.77 91.1038 1558.45 99.2089 1562.36 108.528C1566.36 117.847 1568.36 127.831 1568.36 138.482C1568.36 139.813 1568.32 141.262 1568.24 142.828C1568.24 144.316 1568.16 145.686 1568 146.939H1436.91C1438.4 151.09 1440.79 154.888 1444.08 158.333C1447.44 161.779 1451.63 164.755 1456.65 167.261C1461.66 169.767 1467.45 171.725 1474.03 173.134C1480.61 174.465 1487.89 175.131 1495.88 175.131C1503.87 175.131 1511.81 174.309 1519.72 172.664C1527.63 170.941 1535.19 168.788 1542.4 166.204L1554.14 192.751C1549.6 194.865 1544.98 196.745 1540.28 198.389C1535.66 199.955 1530.81 201.287 1525.72 202.383C1520.7 203.401 1515.42 204.184 1509.86 204.732C1504.38 205.281 1498.58 205.555 1492.47 205.555C1476.89 205.555 1463.22 203.675 1451.48 199.916C1439.73 196.157 1429.9 191.028 1421.99 184.528C1414.08 178.029 1408.13 170.393 1404.14 161.622C1400.14 152.852 1398.15 143.415 1398.15 133.313ZM1531.47 119.805C1530.22 115.967 1528.26 112.404 1525.6 109.115C1523.01 105.748 1519.76 102.85 1515.85 100.423C1511.93 97.9168 1507.39 95.9591 1502.22 94.5495C1497.05 93.1399 1491.38 92.4351 1485.19 92.4351C1478.61 92.4351 1472.62 93.179 1467.22 94.6669C1461.81 96.1548 1457.08 98.1518 1453 100.658C1448.93 103.164 1445.53 106.061 1442.78 109.35C1440.12 112.639 1438.16 116.124 1436.91 119.805H1531.47ZM1586.58 64.4782H1621.35V84.4474C1629.03 78.7307 1637.13 73.7972 1645.67 69.6467C1654.2 65.4963 1662.7 62.3247 1671.16 60.132L1681.38 91.9652C1667.99 93.2965 1656.2 96.3115 1646.02 101.01C1635.92 105.63 1627.69 112.169 1621.35 120.627V203.088H1586.58V64.4782Z" fill="black"/>
</svg>
